# xmcd
# 
# Track frame offsets:
#     182
#     13502
#     27442
#     37562
#     49355
#     60057
#     69690
#     82570
#     93477
#     102820
#     113375
#     122870
#     134490
#     144227
#     154460
#     166577
# 
# Disc length: 2381
# 
# Revision: 2
# Processed by: cddbd v1.5.2PL0 Copyright (c) Steve Scherf et al.
# Submitted via: fre:ac v1.0.17
# 
DISCID=bb094b10
DTITLE=Various Artist - Popcorn Oldies "The Great Singers"
DYEAR=0
DGENRE=Popcorn
TTITLE0=Dion and The Belmonts - Donna, The Prima Donna
TTITLE1=Nancy Sinatra and Lee Hazlewood - Lady Bird
TTITLE2=Paul Peterson - Heart and Soul
TTITLE3=Tennessee Ernie Ford - Sixteen Tons
TTITLE4=Clyde McPatther - Tata
TTITLE5=Johnny Restivo - Last Night on the Backporche
TTITLE6=Duane Eddy - Forty Miles of Bad Road
TTITLE7=Major Lance - Just One Look
TTITLE8=Edward Byrnes and Connie Stevens - Kookie
TTITLE9=Sam Cooke - Another Saturday Night
TTITLE10=Paul Anka - My Home Town
TTITLE11=Eddie Calvert - Trumpet Cha Cha
TTITLE12=Cassius Clay - Stand By Me
TTITLE13=Rick Nelson - For You
TTITLE14=Trini Lopez - Besame Mucho
TTITLE15=Linda Brannon - Don't Cross Over
EXTD=
EXTT0=
EXTT1=
EXTT2=
EXTT3=
EXTT4=
EXTT5=
EXTT6=
EXTT7=
EXTT8=
EXTT9=
EXTT10=
EXTT11=
EXTT12=
EXTT13=
EXTT14=
EXTT15=
PLAYORDER=
